<svg width="370" height="75" viewBox="0 0 370 75" fill="none" xmlns="http://www.w3.org/2000/svg">
<g clip-path="url(#clip0)">
<path fill-rule="evenodd" clip-rule="evenodd" d="M0.600006 0V53H41L46.8 40.8H16V0H0.600006Z" fill="#3B3735"/>
<path fill-rule="evenodd" clip-rule="evenodd" d="M63.1 0L36.7 53H51.1L55.2 45H81.3L85.2 53H102L76.1 0H63.1ZM68.6 15.7L77.2 36.2H59.2L68.6 15.7Z" fill="#3B3735"/>
<path fill-rule="evenodd" clip-rule="evenodd" d="M79.3 0L102.5 31.1V53H117.9V30.8L141 0H124.6L110.9 20.2L97.5 0H79.3Z" fill="#3B3735"/>
<path fill-rule="evenodd" clip-rule="evenodd" d="M138.7 0V53H178.9V42.2H154.1V29.5H172.7V20.3H154.1V9.2H176.9V0H138.7Z" fill="#3B3735"/>
<path fill-rule="evenodd" clip-rule="evenodd" d="M176.4 1.52737e-06V53H191.8V32.7H195.8C203.6 32.7 206.1 38.5 212.2 53H229.4C221.6 38.9 219.1 29.3 210.2 28.6C219.5 28.1 224.6 23.2 224.6 15.4C224.6 10.2 222.4 5.8 218.5 3C214.6 0.300001 209.5 -0.0999985 202.3 -0.0999985H176.4V1.52737e-06ZM191.8 9.1H198.9C205.6 9.1 209.1 10.7 209.1 16.3C209.1 21.5 205.8 23.5 199.3 23.5H191.8V9.1V9.1Z" fill="#3B3735"/>
<path fill-rule="evenodd" clip-rule="evenodd" d="M271.9 0.0999985C270.2 4.4 266 7.3 259.3 8.6V17.3C265.6 16.5 269.3 14.5 271.5 11.2V53H280.6V0.0999985H271.9Z" fill="#3B3735"/>
<path fill-rule="evenodd" clip-rule="evenodd" d="M298.4 43.9C316 32.6 325 23.6 325 14.5C325 6 317.7 0.0999985 304.8 0.0999985C298.3 0.0999985 292.2 1.6 287.6 4.1L286.4 16C292.5 10.5 298.5 7.6 304.8 7.6C310.9 7.6 314.4 10.8 314.4 15.3C314.4 22.6 304.5 32.2 285 45.3V53H326.4L327.7 43.9H298.4Z" fill="#3B3735"/>
<path fill-rule="evenodd" clip-rule="evenodd" d="M331.9 0.0999985L330.6 8.9H354.3L343.4 21.6L342.8 29.7C343.9 29.5 345 29.4 346.3 29.4C355.4 29.4 360.2 32.4 360.2 37.5C360.2 42.2 355.5 45.6 347.8 45.6C342 45.6 337.6 43.3 332.1 39.4L327.1 46.8C333.5 51.1 340.5 53.1 348.8 53.1C362 53.1 369.3 47.2 369.3 37C369.3 28 364.1 22.8 355 22.8H353.5L366 7.5V0.0999985H331.9Z" fill="#3B3735"/>
<path d="M255 29.1H233.3V53H255V29.1Z" fill="#283385"/>
<path d="M255 0.0999985H233.3V8.9H255V0.0999985Z" fill="#D2CC00"/>
<path d="M254.9 11.7H233.3V26.2H254.9V11.7Z" fill="#00935D"/>
<path fill-rule="evenodd" clip-rule="evenodd" d="M1.5 74.6V65.7L4.4 73.8H6.4L9.2 65.8V74.6H11.5V63.1H8.6L5.8 71.2L3 63.1H0V74.6H1.5ZM22.3 74.6V73.1H16.9V69.2H21.6V67.7H16.9V64.6H22.3V63.1H14.6V74.6H22.3ZM32 73.1V74.6H24.3V63.1H32V64.6H26.6V67.7H31.2V69.2H26.6V73.1H32ZM38.6 74.6V64.6H42.5V63.1H32.5V64.6H36.3V74.6H38.6ZM55.1 66.2V68.5H52.8V66.2H55.1ZM55.1 72.3V74.6H52.8V72.3H55.1ZM73.7 74.6V73.1H68.4V63.1H66.1V74.6H73.7ZM83.1 73.1V74.6H75.4V63.1H83.1V64.6H77.7V67.7H82.4V69.2H77.7V73.1H83.1ZM90.4 70H86.9L88.6 65.4L90.4 70ZM85.1 74.6L86.3 71.5H90.8L91.9 74.6H94.3L90.1 63.1H87.8L83.5 74.6H85.1ZM100.1 64.6H99.4V68.4H99.9C101.5 68.4 102.4 67.7 102.4 66.2C102.4 65.1 101.6 64.6 100.1 64.6ZM99.3 70V74.6H97V63.1H101.1C103.3 63.1 104.5 64.1 104.6 66C104.6 66.7 104.4 67.4 104.1 68C103.8 68.6 103.4 69.1 102.8 69.4L106.2 74.6H103.6L100.5 70H99.3ZM109.7 74.6V66.8L115.9 74.6H117.3V63.1H115.8V70.9L109.6 63.1H108.1V74.6H109.7ZM130.5 66.2V68.5H128.2V66.2H130.5ZM130.5 72.3V74.6H128.2V72.3H130.5ZM149.1 74.6V73.1H143.7V69.2H148.4V67.7H143.7V64.6H149.1V63.1H141.4V74.6H149.1ZM155 70.4L151.9 74.6H150.4L154.3 69.2L150.4 63.1H153L155.7 67.3L158.8 63.1H160.3L156.4 68.5L160.3 74.6H157.7L155 70.4ZM171.1 72.3C169.9 72.8 168.7 73.1 167.6 73.1C166.3 73.1 165.3 72.7 164.6 72C163.9 71.3 163.5 70.2 163.5 68.9C163.5 67.6 163.8 66.5 164.5 65.8C165.2 65.1 166.2 64.7 167.4 64.7C168.4 64.5 169.6 64.8 171.1 65.5V64C169.8 63.5 168.6 63.2 167.3 63.2C165.3 63.2 163.8 63.7 162.7 64.7C161.6 65.7 161.1 67.1 161.1 69C161.1 70.8 161.6 72.2 162.7 73.2C163.8 74.2 165.2 74.7 167.1 74.7C168.6 74.7 170 74.4 171.1 73.9V72.3ZM175.7 69.2V74.6H173.4V63.1H175.7V67.7H180.3V63.1H182.6V74.6H180.3V69.2H175.7ZM191.2 70H187.7L189.4 65.4L191.2 70ZM186 74.6L187.1 71.5H191.6L192.7 74.6H195.1L191 63.1H188.7L184.4 74.6H186ZM199.4 66.8V74.6H197.8V63.1H199.3L205.5 70.9V63.1H207V74.6H205.6L199.4 66.8ZM220.2 69.2H217.9V72.9C217.4 73 217 73 216.7 73C215.2 73 213.9 72.6 213.1 71.9C212.2 71.2 211.8 70.1 211.8 68.8C211.8 67.5 212.2 66.4 212.9 65.7C213.7 65 214.8 64.6 216.1 64.6C217.2 64.4 218.5 64.7 220.2 65.4V63.9C218.9 63.4 217.5 63.1 216.1 63.1C213.9 63.1 212.3 63.6 211.1 64.6C209.9 65.6 209.4 67 209.4 68.9C209.4 70.8 210 72.2 211.1 73.2C212.2 74.2 213.9 74.7 216.1 74.7C217.2 74.7 218.6 74.5 220.2 74.2V69.2ZM229.9 73.1V74.6H222.2V63.1H229.9V64.6H224.5V67.7H229.2V69.2H224.5V73.1H229.9Z" fill="#3B3735"/>
<path fill-rule="evenodd" clip-rule="evenodd" d="M176.4 9.2H154.1V20.3H172.7V29.5H154.1V42.2H176.4V9.2ZM178.9 53H191.8V32.7H195.8C203.6 32.7 206.1 38.5 212.2 53H229.4C227.709 49.9436 226.267 47.0986 224.956 44.5099C220.215 35.1562 217.171 29.1483 210.2 28.6C219.5 28.1 224.6 23.2 224.6 15.4C224.6 10.2 222.4 5.8 218.5 3C214.6 0.300001 209.5 -0.0999985 202.3 -0.0999985H176.4V0H141H138.7H124.6L110.9 20.2L97.5 0H79.3L102.5 31.1V53H117.9V30.8L138.7 3.06667V53H176.4H178.9ZM198.9 9.1H191.8V23.5H199.3C205.8 23.5 209.1 21.5 209.1 16.3C209.1 10.7 205.6 9.1 198.9 9.1ZM0.600006 0V53H36.7H41H51.1L55.2 45H81.3L85.2 53H102L76.1 0H63.1L42.777 40.8H16V0H0.600006ZM68.6 15.7L77.2 36.2H59.2L68.6 15.7Z" fill="#3B3735"/>
<path fill-rule="evenodd" clip-rule="evenodd" d="M271.9 0.0999985C270.2 4.4 266 7.3 259.3 8.6V17.3C265.6 16.5 269.3 14.5 271.5 11.2V53H280.6V0.0999985H271.9Z" fill="#3B3735"/>
<path fill-rule="evenodd" clip-rule="evenodd" d="M298.4 43.9C316 32.6 325 23.6 325 14.5C325 6 317.7 0.0999985 304.8 0.0999985C298.3 0.0999985 292.2 1.6 287.6 4.1L286.4 16C292.5 10.5 298.5 7.6 304.8 7.6C310.9 7.6 314.4 10.8 314.4 15.3C314.4 22.6 304.5 32.2 285 45.3V53H326.4L327.7 43.9H298.4Z" fill="#3B3735"/>
<path fill-rule="evenodd" clip-rule="evenodd" d="M331.9 0.0999985L330.6 8.9H354.3L343.4 21.6L342.8 29.7C343.9 29.5 345 29.4 346.3 29.4C355.4 29.4 360.2 32.4 360.2 37.5C360.2 42.2 355.5 45.6 347.8 45.6C342 45.6 337.6 43.3 332.1 39.4L327.1 46.8C333.5 51.1 340.5 53.1 348.8 53.1C362 53.1 369.3 47.2 369.3 37C369.3 28 364.1 22.8 355 22.8H353.5L366 7.5V0.0999985H331.9Z" fill="#3B3735"/>
<path d="M255 29.1H233.3V53H255V29.1Z" fill="#283385"/>
<path d="M255 0.0999985H233.3V8.9H255V0.0999985Z" fill="#D2CC00"/>
<path d="M254.9 11.7H233.3V26.2H254.9V11.7Z" fill="#00935D"/>
</g>
<defs>
<clipPath id="clip0">
<rect width="369.4" height="74.6" fill="white"/>
</clipPath>
</defs>
</svg>
